<svg xmlns="http://www.w3.org/2000/svg" width="35" height="32" viewBox="0 0 35 32" fill="none">
<path d="M27.103 10.8299C27.103 16.4446 22.5094 17.3166 22.5094 22.5493C22.5094 25.2507 19.6403 25.4783 17.4565 25.4783C15.5704 25.4783 11.4058 24.799 11.4058 22.5476C11.4058 17.3174 6.89124 16.4455 6.89124 10.8299C6.89124 5.57098 11.7467 1.30786 17.0734 1.30786C22.4019 1.30786 27.103 5.57098 27.103 10.8299Z" fill="url(#paint0_linear_112_1113)" stroke="white" stroke-width="0.5"/>
<path d="M20.8272 29.5248C20.8272 30.2468 18.7748 31.7048 16.9989 31.7048C15.2231 31.7048 13.1707 30.2468 13.1707 29.5248C13.1707 28.8028 15.2221 29.0888 16.9989 29.0888C18.7748 29.0888 20.8272 28.8028 20.8272 29.5248Z" fill="url(#paint1_linear_112_1113)" stroke="white" stroke-width="0.5"/>
<path d="M21.3195 10.1608C21.2342 10.0797 21.133 10.0154 21.0215 9.97154C20.9101 9.92767 20.7906 9.90509 20.6699 9.90509C20.5493 9.90509 20.4298 9.92767 20.3183 9.97154C20.2069 10.0154 20.1056 10.0797 20.0204 10.1608L16.9951 13.0322L13.9697 10.1608C13.8844 10.0798 13.7832 10.0156 13.6717 9.97176C13.5603 9.92795 13.4408 9.9054 13.3202 9.9054C13.1996 9.9054 13.0801 9.92795 12.9687 9.97176C12.8572 10.0156 12.756 10.0798 12.6707 10.1608C12.5854 10.2417 12.5177 10.3378 12.4715 10.4436C12.4254 10.5494 12.4016 10.6628 12.4016 10.7772C12.4016 10.8917 12.4254 11.0051 12.4715 11.1109C12.5177 11.2167 12.5854 11.3128 12.6707 11.3937L16.0763 14.6262V23.857C16.0763 24.0882 16.1731 24.31 16.3454 24.4736C16.5177 24.6371 16.7514 24.729 16.9951 24.729C17.2387 24.729 17.4724 24.6371 17.6447 24.4736C17.817 24.31 17.9138 24.0882 17.9138 23.857V14.6262L21.3195 11.3937C21.4048 11.3128 21.4726 11.2167 21.5188 11.1109C21.565 11.0052 21.5888 10.8918 21.5888 10.7772C21.5888 10.6627 21.565 10.5493 21.5188 10.4435C21.4726 10.3378 21.4048 10.2417 21.3195 10.1608Z" fill="white"/>
<path d="M23.2723 27.2593C23.2723 27.5736 23.0813 27.875 22.7412 28.0973C22.4012 28.3196 21.9399 28.4444 21.459 28.4444H14.2057C13.7247 28.4444 13.2635 28.3196 12.9234 28.0973C12.5834 27.875 12.3923 27.5736 12.3923 27.2593V23.7037H23.2723V27.2593Z" fill="white"/>
<path d="M11.4801 29.0883C11.2501 29.0875 11.0287 29.0048 10.8598 28.8565C10.6909 28.7083 10.5867 28.5053 10.5679 28.2877C10.5491 28.07 10.617 27.8536 10.7582 27.6812C10.8993 27.5088 11.1035 27.393 11.3304 27.3566L22.355 25.6126C22.474 25.5931 22.5959 25.5963 22.7137 25.6219C22.8314 25.6475 22.9426 25.695 23.0409 25.7616C23.1392 25.8283 23.2225 25.9128 23.2861 26.0103C23.3497 26.1077 23.3924 26.2162 23.4115 26.3294C23.4314 26.4423 23.4276 26.5578 23.4004 26.6693C23.3731 26.7808 23.323 26.8862 23.2529 26.9793C23.1828 27.0724 23.094 27.1515 22.9916 27.2121C22.8892 27.2726 22.7753 27.3134 22.6563 27.3321L11.6317 29.0761C11.5817 29.0845 11.5309 29.0885 11.4801 29.0883ZM11.4801 25.6004C11.2501 25.5996 11.0287 25.5169 10.8598 25.3686C10.6909 25.2204 10.5867 25.0174 10.5679 24.7997C10.5491 24.5821 10.617 24.3657 10.7582 24.1933C10.8993 24.0209 11.1035 23.905 11.3304 23.8686L22.355 22.1247C22.474 22.1053 22.5959 22.1086 22.7136 22.1342C22.8313 22.1599 22.9424 22.2074 23.0407 22.274C23.1389 22.3407 23.2223 22.4251 23.2859 22.5225C23.3496 22.6199 23.3922 22.7283 23.4115 22.8414C23.4314 22.9543 23.4276 23.0699 23.4004 23.1814C23.3731 23.2929 23.323 23.3983 23.2529 23.4914C23.1828 23.5845 23.094 23.6636 22.9916 23.7242C22.8892 23.7847 22.7753 23.8255 22.6563 23.8442L11.6317 25.5882C11.5817 25.5965 11.5309 25.6006 11.4801 25.6004Z" fill="url(#paint2_linear_112_1113)" stroke="white" stroke-width="0.5"/>
<defs>
<linearGradient id="paint0_linear_112_1113" x1="8.76475" y1="-0.883583" x2="35.4314" y2="6.23975" gradientUnits="userSpaceOnUse">
<stop stop-color="#D7EF41"/>
<stop offset="1" stop-color="#AC2DE8"/>
</linearGradient>
<linearGradient id="paint1_linear_112_1113" x1="13.8804" y1="28.7907" x2="15.7829" y2="33.3382" gradientUnits="userSpaceOnUse">
<stop stop-color="#D7EF41"/>
<stop offset="1" stop-color="white"/>
</linearGradient>
<linearGradient id="paint2_linear_112_1113" x1="11.7568" y1="21.4797" x2="18.1334" y2="31.2839" gradientUnits="userSpaceOnUse">
<stop stop-color="#D7EF41"/>
<stop offset="1" stop-color="white"/>
</linearGradient>
</defs>
</svg>