<svg xmlns="http://www.w3.org/2000/svg" width="33" height="42" viewBox="0 0 33 42" fill="none">
<g filter="url(#filter0_d_112_1109)">
<path d="M5.7284 0.260911L28.3686 14.5671C28.5308 14.6699 28.6654 14.817 28.7589 14.9937C28.8524 15.1703 28.9016 15.3704 28.9016 15.5741C28.9016 15.7777 28.8524 15.9778 28.7589 16.1545C28.6654 16.3312 28.5308 16.4782 28.3686 16.5811L5.7284 30.8873C5.56437 30.9909 5.37794 31.0458 5.18802 31.0463C4.99811 31.0468 4.81144 30.9929 4.64695 30.8901C4.48246 30.7872 4.34599 30.6391 4.25137 30.4608C4.15675 30.2824 4.10735 30.0801 4.10816 29.8744V1.26911C4.10811 1.06379 4.15807 0.862088 4.253 0.684372C4.34793 0.506656 4.48447 0.359217 4.64883 0.256942C4.81319 0.154667 4.99955 0.101177 5.18911 0.101874C5.37866 0.102571 5.56468 0.15743 5.7284 0.260911Z" fill="white"/>
</g>
<defs>
<filter id="filter0_d_112_1109" x="0.108154" y="0.101868" width="32.7935" height="40.9444" filterUnits="userSpaceOnUse" color-interpolation-filters="sRGB">
<feFlood flood-opacity="0" result="BackgroundImageFix"/>
<feColorMatrix in="SourceAlpha" type="matrix" values="0 0 0 0 0 0 0 0 0 0 0 0 0 0 0 0 0 0 127 0" result="hardAlpha"/>
<feOffset dy="6"/>
<feGaussianBlur stdDeviation="2"/>
<feComposite in2="hardAlpha" operator="out"/>
<feColorMatrix type="matrix" values="0 0 0 0 0 0 0 0 0 0 0 0 0 0 0 0 0 0 0.25 0"/>
<feBlend mode="normal" in2="BackgroundImageFix" result="effect1_dropShadow_112_1109"/>
<feBlend mode="normal" in="SourceGraphic" in2="effect1_dropShadow_112_1109" result="shape"/>
</filter>
</defs>
</svg>