<svg xmlns="http://www.w3.org/2000/svg" width="57" height="80" viewBox="0 0 57 80" fill="none">
<path d="M3.72493 0.839795L55.7746 37.2023C56.1476 37.4638 56.4569 37.8377 56.6719 38.2867C56.8869 38.7357 57 39.2443 57 39.7619C57 40.2795 56.8869 40.7881 56.6719 41.2372C56.4569 41.6862 56.1476 42.0601 55.7746 42.3215L3.72493 78.6841C3.34782 78.9476 2.91923 79.0871 2.48261 79.0883C2.04599 79.0896 1.61685 78.9526 1.23869 78.6912C0.860529 78.4299 0.546784 78.0534 0.329255 77.6001C0.111726 77.1467 -0.00185532 76.6325 2.29219e-05 76.1096V3.40237C-0.000106231 2.8805 0.11475 2.36783 0.332992 1.91612C0.551234 1.46441 0.865136 1.08966 1.243 0.829705C1.62087 0.569749 2.04932 0.433792 2.4851 0.435564C2.92087 0.437336 3.34854 0.576772 3.72493 0.839795Z" fill="#2B2B33"/>
</svg>